<?xml version="1.0" encoding="utf-8"?>
<!-- Generator: Adobe Illustrator 21.1.0, SVG Export Plug-In . SVG Version: 6.00 Build 0)  -->
<svg version="1.1" id="Layer_1" xmlns="http://www.w3.org/2000/svg" xmlns:xlink="http://www.w3.org/1999/xlink" x="0px" y="0px"
	 viewBox="0 0 792 612" style="enable-background:new 0 0 792 612;" xml:space="preserve">
<style type="text/css">
	.st0{fill:#8A8A8D;}
	.st1{fill:#0093C9;}
</style>
<g>
	<g>
		<path class="st0" d="M252.8,224.6c27.8,0,58.2,0,62.9,0c8.4-14,32-31.9,40.6-33.9c-34.5,0.1-69,0.3-103.4,0.4L252.8,224.6z"/>
		<path class="st0" d="M237.4,190.9c-11.3,0.1-22.6,0.1-33.9,0.2c-4,0.9-14.6,3.7-21.8,13.4c-5.6,7.5-6.2,15.5-6.7,21.6
			c-1.1,15.6,4.9,20.7,5,36c0,5.8-0.8,14.2-5,24.5c-7.8,0-15.6,0-23.5,0c0,12.9,0,25.7,0,38.6c7.3,0,14.6,0,21.8,0
			c5.2,8.3,6.7,15.2,7.1,19.7c1.7,16.9-8.4,23.8-7.1,43.9c0.3,5.1,0.8,11.6,5,18.4c6,9.8,15.8,13.7,20.1,15.1c71.5,0,143,0,214.4,0
			c49.4-20.9,82.8-64.4,85.4-112.2c2-37.7-15.7-66.1-23.5-77.1c-13.3,0-26.5,0-39.8,0c4.2,4.5,31.6,35,26.8,79.4
			c-5.7,52.2-51,76.7-54.7,78.5c-64.9,0-129.8,0-194.8,0c-1.3-3.1-2.9-8-3.6-14c-1.2-11.3,1.9-18.4,3.6-28.9
			c1.1-6.6,1.8-16.3,0-28.7c-0.7-0.7-4.9-5-4.8-11.7c0.1-6.9,4.7-11.1,5.4-11.7c1.3-11,0.7-19.6,0-25.3c-1.5-12.2-4.6-18.5-3.8-29.7
			c0.6-7.1,2.4-12.7,3.8-16.1c8.1,0,16.2,0,24.3,0C237.3,213.4,237.4,202.2,237.4,190.9z"/>
	</g>
	<g>
		<path class="st1" d="M538.6,388.5c-27.8,0-56,0-60.7,0c-4.3,8.6-35.5,32.6-42.8,33.9c34.5-0.1,69-0.3,103.4-0.4L538.6,388.5z"/>
		<path class="st1" d="M554.1,422.2c11.3-0.1,22.6-0.1,33.9-0.2c2.8-0.5,13.8-3,21.8-13.4c9.4-12.3,7.1-26.2,6.7-28.5
			c-2.3-6-5.4-16.2-5-29.1c0.3-10.6,2.9-19,5-24.5c7.8,0,15.6,0,23.5,0c0-12.9,0-25.7,0-38.6c-7.3,0-14.6,0-21.8,0
			c-5.2-8.3-6.7-15.2-7.1-19.7c-1.7-16.9,8.4-23.8,7.1-43.9c-0.3-5.1-0.8-11.6-5-18.4c-6-9.8-15.8-13.7-20.1-15.1
			c-71.5,0-143,0-214.4,0c-49.4,20.9-82.8,64.4-85.4,112.2c-2,37.7,15.7,66.1,23.5,77.1c14.5,0,28.9,0,43.4,0
			c-3.7-3.6-34.9-34.6-29.7-81.2c5.7-51.6,50.8-75.1,54-76.7c64.9,0,129.8,0,194.8,0c1.3,3.1,2.9,8,3.6,14
			c1.2,11.3-1.9,18.4-3.6,28.9c-1.1,6.6-1.8,16.3,0,28.7c0.7,0.7,4.9,5,4.8,11.7c-0.1,6.9-4.7,11.1-5.4,11.7
			c-1.3,11-0.7,19.6,0,25.3c1.5,12.2,4.6,18.5,3.8,29.7c-0.6,7.1-2.4,12.7-3.8,16.1c-8.1,0-16.2,0-24.3,0
			C554.1,399.8,554.1,411,554.1,422.2z"/>
	</g>
</g>
</svg>
